<?xml version="1.0" encoding="UTF-8"?>
<svg id="Layer_2" data-name="Layer 2" xmlns="http://www.w3.org/2000/svg" viewBox="0 0 238.93 56.01">
  <defs>
    <style>
      .cls-1 {
        fill: #22a34a;
      }
    </style>
  </defs>
  <g id="Layer_2-2" data-name="Layer 2">
    <g>
      <path d="m25.24,41.53l1.73-3.4-.71-1.32-.71-1.32-.84,3.79c-.46,2.08-.92,4.21-1.02,4.72-.1.51.59-.6,1.55-2.47"/>
      <path d="m24.08,32.92c.69-3.15,1.26-5.92,1.26-6.16s-2.61.68-6.11,2.18l-6.11,2.62v7.64h2.22v8.51h2.75c2.3,0,2.78-.11,2.94-.65.1-.36.55-2.4.99-4.53.44-2.14,1.36-6.46,2.06-9.61"/>
      <path d="m9.15,47.66c.15.02.28-1.87.28-4.21v-4.26h2.22v-3.53c0-3.46-.01-3.52-.77-3.12-.42.23-.82.36-.88.29-.17-.2-1.68-3.23-1.68-3.38,0-.08,3.68-1.71,8.18-3.62,4.5-1.91,8.27-3.73,8.38-4.04.63-1.78,2.47-2.75,4.11-2.18.95.33,1.68.13,5.66-1.56,2.51-1.07,4.61-1.97,4.67-2.01.06-.04-.23-.85-.64-1.8l-.74-1.73,2.29-4.07,2.29-4.07.67.85c1.14,1.45,3.53,6.65,4.21,9.18,1.06,3.95.87,16.04-.25,15.35-.22-.14-.35,3.23-.35,8.87v9.09h1.67c1.35,0,1.61.03,1.65.67,4.72-5.14,7.6-11.99,7.6-19.51C57.73,12.92,44.8,0,28.86,0S0,12.92,0,28.86c0,7.39,2.78,14.13,7.35,19.24.24-.47.79-.59,1.81-.43"/>
      <path d="m26.2,32.42l.92,1.8.92,1.8.9-1.78.91-1.78-.73-3.32c-.69-3.13-.99-3.97-1.31-3.61-.08.08-.47,1.67-.87,3.52l-.73,3.36Z"/>
      <path d="m28.86,22.54c0-.66-.23-.95-.79-1.03-.94-.13-1.46.9-.83,1.66.66.8,1.61.43,1.61-.62"/>
      <path d="m32.32,44.53c.07-.06-.24-1.83-.69-3.92-1.04-4.84-1.19-5.13-1.93-3.61-.56,1.16-.54,1.28.96,4.42.84,1.77,1.59,3.18,1.66,3.12"/>
      <path d="m40.54,47.71h5.16v-8.99c0-5.1-.15-9.15-.35-9.34-.19-.19-1.2-2.35-2.24-4.79s-2.01-4.55-2.15-4.68c-.35-.33-10.1,3.91-10.46,4.55-.26.47,4.14,22.05,4.67,22.91.12.19,2.53.34,5.37.34"/>
      <path d="m31.25,47.06c-.01-.15-.74-1.69-1.62-3.41l-1.6-3.14-1.71,3.41-1.72,3.41h3.33c1.83,0,3.33-.12,3.32-.28"/>
    </g>
    <g>
      <polygon points="78.27 41.01 80.44 30.79 68.22 30.79 66.04 41.01 63.27 41.01 68.25 17.63 71.02 17.63 68.85 27.85 81.08 27.85 83.25 17.63 86.02 17.63 81.04 41.01 78.27 41.01"/>
      <polygon points="97.08 29.82 94.71 41.01 91.94 41.01 94.31 29.82 88.76 17.63 92.2 17.63 96.38 26.75 104.43 17.63 107.84 17.63 97.08 29.82"/>
      <path d="m122.5,37.61c-2.67,2.27-5.52,3.41-8.55,3.41h-8.35l4.98-23.39h8.32c3.07,0,5.45,1.15,7.12,3.44,1.69,2.29,2.19,5.04,1.5,8.25-.67,3.23-2.34,5.99-5.01,8.29m1.14-14.47c-1.25-1.72-3.03-2.57-5.35-2.57h-5.55l-3.74,17.54h5.55c2.27,0,4.42-.86,6.45-2.57,1.02-.87,1.84-1.82,2.46-2.84.61-1.02,1.04-2.15,1.29-3.38.53-2.45.17-4.51-1.1-6.18"/>
      <path d="m144.19,41.01l-3.31-8.18c-.56-1.36-1.8-2.04-3.74-2.04h-3.34l-2.17,10.22h-2.77l4.98-23.39h9.46c1.83,0,3.31.6,4.44,1.8,1.14,1.29,1.5,2.88,1.1,4.78-.33,1.54-1.09,2.87-2.27,4.01-1.16,1.11-2.52,1.88-4.08,2.3.49.02,1.06.79,1.7,2.3l3.31,8.18h-3.31Zm1.1-19.51c-.65-.62-1.53-.94-2.64-.94h-6.65l-1.57,7.28h6.68c1.11,0,2.13-.32,3.04-.97,1.02-.69,1.66-1.58,1.9-2.67.24-1.11-.01-2.02-.77-2.71"/>
      <path d="m164.3,41.01l-.74-5.24h-9.56l-2.94,5.24h-2.94l13.03-23.39h3.01l3.07,23.39h-2.94Zm-2.54-19.11l-6.11,10.92h7.58l-1.47-10.92Z"/>
      <polygon class="cls-1" points="169.78 41.85 175.09 16.82 179.47 16.82 175.09 37.27 185.08 37.27 184.11 41.85 169.78 41.85"/>
      <polygon class="cls-1" points="187.25 41.85 192.56 16.82 196.94 16.82 191.59 41.85 187.25 41.85"/>
      <polygon class="cls-1" points="204.42 21.37 203.22 27.05 213.18 27.05 212.17 31.59 202.22 31.59 200.05 41.85 195.7 41.85 201.01 16.83 218.12 16.83 217.15 21.37 204.42 21.37"/>
      <polygon class="cls-1" points="230.78 21.37 226.4 41.85 222.06 41.85 226.4 21.37 219.19 21.37 220.16 16.83 238.93 16.83 237.96 21.37 230.78 21.37"/>
      <path class="cls-1" d="m177.48,55.74l-2.18-3.69c-.37-.61-.96-.92-1.79-.92h-1.44v4.61h-1.19v-10.53h4.07c.79,0,1.49.27,2.08.81.61.59.92,1.31.92,2.15,0,.69-.21,1.29-.62,1.81-.39.51-.91.86-1.55,1.04.23.02.54.37.94,1.04l2.18,3.69h-1.42Zm-1.31-8.79c-.34-.28-.74-.42-1.22-.42h-2.88v3.28h2.88c.48,0,.89-.15,1.22-.44.38-.31.57-.71.57-1.2s-.19-.9-.57-1.22"/>
      <polygon class="cls-1" points="191.94 55.74 191.94 46.91 189.01 55.74 187.74 55.74 184.8 46.86 184.8 55.74 183.61 55.74 183.61 45.21 185.52 45.21 188.37 53.81 191.22 45.21 193.13 45.21 193.13 55.74 191.94 55.74"/>
      <path class="cls-1" d="m207.03,54.39c-.98,1.08-2.17,1.62-3.56,1.62s-2.57-.54-3.56-1.62c-.98-1.09-1.46-2.4-1.46-3.91s.49-2.82,1.46-3.91c.98-1.07,2.16-1.61,3.56-1.61s2.58.54,3.56,1.61c.99,1.08,1.48,2.39,1.48,3.91s-.49,2.83-1.48,3.91m-.85-6.89c-.75-.82-1.65-1.23-2.71-1.23s-1.95.41-2.7,1.23c-.76.82-1.14,1.82-1.14,2.98s.38,2.16,1.14,2.98c.75.82,1.65,1.23,2.7,1.23s1.96-.41,2.71-1.23c.75-.82,1.12-1.82,1.12-2.98s-.37-2.16-1.12-2.98"/>
      <polygon class="cls-1" points="222.7 55.74 221.46 55.74 219.34 47.58 217.2 55.74 215.95 55.74 213.22 45.21 214.46 45.21 216.58 53.36 218.72 45.21 219.96 45.21 222.07 53.36 224.21 45.21 225.45 45.21 222.7 55.74"/>
    </g>
  </g>
</svg>